<svg class="diagram-root" style="background: #f5f6f6" xmlns="http://www.w3.org/2000/svg" xmlns:xlink="http://www.w3.org/1999/xlink"><style>.diagram-root { font-family: "Helvetica Neue", sans-serif; font-size: 12px; } .t { overflow: visible; } .t-bg { y: 40; fill: #fff;   } .th { fill: #005aa0;   } .tht { fill: #fff; font-size: 14px;  } .tf { fill: #323c46; overflow: visible; } .tf.pk { fill: #005aa0; font-weight: bold; } .tf.fk { font-weight: bold; } .ty { fill: #adb1b5; font-weight: normal; text-anchor: end; } .r { fill: transparent; stroke: #c3c3c3; stroke-width: 1; } .l { stroke: 1; } .i { fill: #c2c7ce; stroke: #c2c7ce; } .i.ix { fill: #afb3b6; stroke: #000; } .fa { fill: transparent; overflow: visible; } .fa .bg.hover { fill: #f7f7f7; } .c { cy: 12; r: 4; stroke: #d2d2dc; fill: #d2d2dc; } .hr { fill: transparent; stroke: #323c46; stroke-opacity: 0.035; stroke-width: 13; } .dc { stroke: #fa5a3c; fill: #fa5a3c; } .x { stroke: white; stroke-width: 1; } .hl .th { fill: #1b9bff; } .hl .tht {  } .fhl .bg { fill: #e7f4ff; } .fhls .bg {  } .r.hl { stroke: #1b9bff; } .dim { opacity: 0.25; }</style><g class="drawing-wrapper" transform="translate(2, 18) scale(1,1)"><g class="rs"><path d="M 221.15 212 m -1, 0 a 1,1 0 1,0 2,0 a 1,1 0 1,0 -2,0 M 221.15 212 m -0.5, 0 a 0.5,0.5 0 1,0 1,0 a 0.5,0.5 0 1,0 -1,0  M221.15 212 L221.15 212 233.15 212 M 221.15 218 m -1, 0 a 1,1 0 1,0 2,0 a 1,1 0 1,0 -2,0 M 221.15 218 m -0.5, 0 a 0.5,0.5 0 1,0 1,0 a 0.5,0.5 0 1,0 -1,0  M221.15 218 L221.15 218 228.15 212 221.15 206 M 221.15 206 m -1, 0 a 1,1 0 1,0 2,0 a 1,1 0 1,0 -2,0 M 221.15 206 m -0.5, 0 a 0.5,0.5 0 1,0 1,0 a 0.5,0.5 0 1,0 -1,0  M233.15 212 C 283.15 212, 296.26 508.67, 211.3 508.67 M 199.3 508.67 m -1, 0 a 1,1 0 1,0 2,0 a 1,1 0 1,0 -2,0 M 199.3 508.67 m -0.5, 0 a 0.5,0.5 0 1,0 1,0 a 0.5,0.5 0 1,0 -1,0  M199.3 508.67 L199.3 508.67 211.3 508.67 M205.3 514.6700000000001 L205.3 514.6700000000001 205.3 502.67" id="h478419693" class="r"></path><path d="M 455.2972727272729 477.7627272727273 m -1, 0 a 1,1 0 1,0 2,0 a 1,1 0 1,0 -2,0 M 455.2972727272729 477.7627272727273 m -0.5, 0 a 0.5,0.5 0 1,0 1,0 a 0.5,0.5 0 1,0 -1,0  M455.2972727272729 477.7627272727273 L455.2972727272729 477.7627272727273 443.2972727272729 477.7627272727273 M 455.2972727272729 483.7627272727273 m -1, 0 a 1,1 0 1,0 2,0 a 1,1 0 1,0 -2,0 M 455.2972727272729 483.7627272727273 m -0.5, 0 a 0.5,0.5 0 1,0 1,0 a 0.5,0.5 0 1,0 -1,0  M455.2972727272729 483.7627272727273 L455.2972727272729 483.7627272727273 448.2972727272729 477.7627272727273 455.2972727272729 471.7627272727273 M 455.2972727272729 471.7627272727273 m -1, 0 a 1,1 0 1,0 2,0 a 1,1 0 1,0 -2,0 M 455.2972727272729 471.7627272727273 m -0.5, 0 a 0.5,0.5 0 1,0 1,0 a 0.5,0.5 0 1,0 -1,0  M443.2972727272729 477.7627272727273 Q 390.76 477.7627272727273, 338.22 344.88 T 233.15 212 M 221.15 212 m -1, 0 a 1,1 0 1,0 2,0 a 1,1 0 1,0 -2,0 M 221.15 212 m -0.5, 0 a 0.5,0.5 0 1,0 1,0 a 0.5,0.5 0 1,0 -1,0  M221.15 212 L221.15 212 233.15 212 M227.15 218 L227.15 218 227.15 206" id="h3888088294" class="r"></path><path d="M 448.1845454545453 790.714545454545 m -1, 0 a 1,1 0 1,0 2,0 a 1,1 0 1,0 -2,0 M 448.1845454545453 790.714545454545 m -0.5, 0 a 0.5,0.5 0 1,0 1,0 a 0.5,0.5 0 1,0 -1,0  M448.1845454545453 790.714545454545 L448.1845454545453 790.714545454545 436.1845454545453 790.714545454545 M 448.1845454545453 796.714545454545 m -1, 0 a 1,1 0 1,0 2,0 a 1,1 0 1,0 -2,0 M 448.1845454545453 796.714545454545 m -0.5, 0 a 0.5,0.5 0 1,0 1,0 a 0.5,0.5 0 1,0 -1,0  M448.1845454545453 796.714545454545 L448.1845454545453 796.714545454545 441.1845454545453 790.714545454545 448.1845454545453 784.714545454545 M 448.1845454545453 784.714545454545 m -1, 0 a 1,1 0 1,0 2,0 a 1,1 0 1,0 -2,0 M 448.1845454545453 784.714545454545 m -0.5, 0 a 0.5,0.5 0 1,0 1,0 a 0.5,0.5 0 1,0 -1,0  M436.1845454545453 790.714545454545 C 386.1845454545453 790.714545454545, 381.9169090909087 502.7627272727273, 443.2972727272729 502.7627272727273 M 455.2972727272729 502.7627272727273 m -1, 0 a 1,1 0 1,0 2,0 a 1,1 0 1,0 -2,0 M 455.2972727272729 502.7627272727273 m -0.5, 0 a 0.5,0.5 0 1,0 1,0 a 0.5,0.5 0 1,0 -1,0  M455.2972727272729 502.7627272727273 L455.2972727272729 502.7627272727273 443.2972727272729 502.7627272727273 M449.2972727272729 508.7627272727273 L449.2972727272729 508.7627272727273 449.2972727272729 496.7627272727273" id="h514893162" class="r"></path><path d="M 411.13636363636334 108.1363636363638 m -1, 0 a 1,1 0 1,0 2,0 a 1,1 0 1,0 -2,0 M 411.13636363636334 108.1363636363638 m -0.5, 0 a 0.5,0.5 0 1,0 1,0 a 0.5,0.5 0 1,0 -1,0  M411.13636363636334 108.1363636363638 L411.13636363636334 108.1363636363638 399.13636363636334 108.1363636363638 M 411.13636363636334 114.1363636363638 m -1, 0 a 1,1 0 1,0 2,0 a 1,1 0 1,0 -2,0 M 411.13636363636334 114.1363636363638 m -0.5, 0 a 0.5,0.5 0 1,0 1,0 a 0.5,0.5 0 1,0 -1,0  M411.13636363636334 114.1363636363638 L411.13636363636334 114.1363636363638 404.13636363636334 108.1363636363638 411.13636363636334 102.1363636363638 M 411.13636363636334 102.1363636363638 m -1, 0 a 1,1 0 1,0 2,0 a 1,1 0 1,0 -2,0 M 411.13636363636334 102.1363636363638 m -0.5, 0 a 0.5,0.5 0 1,0 1,0 a 0.5,0.5 0 1,0 -1,0  M399.13636363636334 108.1363636363638 Q 357.64 108.1363636363638, 316.14 97.57 T 233.15 87 M 221.15 87 m -1, 0 a 1,1 0 1,0 2,0 a 1,1 0 1,0 -2,0 M 221.15 87 m -0.5, 0 a 0.5,0.5 0 1,0 1,0 a 0.5,0.5 0 1,0 -1,0  M221.15 87 L221.15 87 233.15 87 M227.15 93 L227.15 93 227.15 81" id="h3481702303" class="r"></path></g><g class="hrs"></g><g class="ts"><svg width="191.15" height="200" x="30" y="30" id="h4220184483" class="t"><rect height="40" width="191.15" class="th"></rect><text x="13" y="25" class="tht">user_profile</text><rect height="160" width="191.15" class="t-bg"></rect><text x="13" y="61" class="tf fk">user_id<tspan x="178.15" class="ty">INT,</tspan></text><text x="13" y="86" class="tf">first_name<tspan x="178.15" class="ty">VARCHAR(120),</tspan></text><text x="13" y="111" class="tf">last_name<tspan x="178.15" class="ty">VARCHAR(120),</tspan></text><text x="13" y="136" class="tf">password<tspan x="178.15" class="ty">TEXT,</tspan></text><text x="13" y="161" class="tf">alpaca_acnt_no<tspan x="178.15" class="ty">INT,</tspan></text><text x="13" y="186" class="tf fk">account_id<tspan x="178.15" class="ty">INT</tspan></text></svg><svg width="138.47" height="125" x="60.83" y="451.67" id="h384084810" class="t"><rect height="40" width="138.47" class="th"></rect><text x="13" y="25" class="tht">account</text><rect height="85" width="138.47" class="t-bg"></rect><text x="13" y="61" class="tf fk">account_id<tspan x="125.47" class="ty">INT,</tspan></text><text x="13" y="86" class="tf">balance<tspan x="125.47" class="ty">MONEY,</tspan></text><text x="13" y="111" class="tf">date<tspan x="125.47" class="ty">TIMESTAMP</tspan></text></svg><svg width="157.13" height="225" x="753.03" y="146.82" id="h1542041466" class="t"><rect height="40" width="157.13" class="th"></rect><text x="13" y="25" class="tht">equity</text><rect height="185" width="157.13" class="t-bg"></rect><text x="13" y="61" class="tf">equity_id<tspan x="144.13" class="ty">INT,</tspan></text><text x="13" y="86" class="tf">ticker<tspan x="144.13" class="ty">VARCHAR(25),</tspan></text><text x="13" y="111" class="tf">value_open<tspan x="144.13" class="ty">MONEY,</tspan></text><text x="13" y="136" class="tf">value_high<tspan x="144.13" class="ty">MONEY,</tspan></text><text x="13" y="161" class="tf">value_low<tspan x="144.13" class="ty">MONEY,</tspan></text><text x="13" y="186" class="tf">value_close<tspan x="144.13" class="ty">MONEY,</tspan></text><text x="13" y="211" class="tf">date<tspan x="144.13" class="ty">TIMESTAMP</tspan></text></svg><svg width="237.85" height="325" x="411.13636363636334" y="26.136363636363804" id="h1774162628" class="t"><rect height="40" width="237.85" class="th"></rect><text x="13" y="25" class="tht">alpaca_journal</text><rect height="285" width="237.85" class="t-bg"></rect><text x="13" y="61" class="tf">alpaca_acnt_no<tspan x="224.85" class="ty">INT,</tspan></text><text x="13" y="86" class="tf fk">user_id<tspan x="224.85" class="ty">INT,</tspan></text><text x="13" y="111" class="tf">user_to_account<tspan x="224.85" class="ty">INT,</tspan></text><text x="13" y="136" class="tf">entry_type<tspan x="224.85" class="ty">INT,</tspan></text><text x="13" y="161" class="tf">status<tspan x="224.85" class="ty">VARCHAR(50),</tspan></text><text x="13" y="186" class="tf">user_from_account<tspan x="224.85" class="ty">VARCHAR(100),</tspan></text><text x="13" y="211" class="tf">settle_date<tspan x="224.85" class="ty">TIMESTAMP,</tspan></text><text x="13" y="236" class="tf">system_date<tspan x="224.85" class="ty">TIMESTAMP,</tspan></text><text x="13" y="261" class="tf">net_amount<tspan x="224.85" class="ty">MONEY,</tspan></text><text x="13" y="286" class="tf">description<tspan x="224.85" class="ty">VARCHAR(255),</tspan></text><text x="13" y="311" class="tf">currency<tspan x="224.85" class="ty">VARCHAR(10)</tspan></text></svg><svg width="155.95" height="225" x="455.2972727272729" y="395.7627272727273" id="h313145637" class="t"><rect height="40" width="155.95" class="th"></rect><text x="13" y="25" class="tht">transactions_records</text><rect height="185" width="155.95" class="t-bg"></rect><text x="13" y="61" class="tf">transaction_id<tspan x="142.95" class="ty">INT,</tspan></text><text x="13" y="86" class="tf fk">account_id<tspan x="142.95" class="ty">INT,</tspan></text><text x="13" y="111" class="tf fk">trans_side_id<tspan x="142.95" class="ty">INT,</tspan></text><text x="13" y="136" class="tf">equity1_id<tspan x="142.95" class="ty">INT,</tspan></text><text x="13" y="161" class="tf">equity2_id<tspan x="142.95" class="ty">INT,</tspan></text><text x="13" y="186" class="tf">date<tspan x="142.95" class="ty">TIMESTAMP,</tspan></text><text x="13" y="211" class="tf">quantity<tspan x="142.95" class="ty">INT</tspan></text></svg><svg width="191.83" height="125" x="448.1845454545453" y="733.714545454545" id="h152608706" class="t"><rect height="40" width="191.83" class="th"></rect><text x="13" y="25" class="tht">transaction_side</text><rect height="85" width="191.83" class="t-bg"></rect><text x="13" y="61" class="tf fk">trans_side_id<tspan x="178.83" class="ty">INT,</tspan></text><text x="13" y="86" class="tf">trans_name<tspan x="178.83" class="ty">VARCHAR(25),</tspan></text><text x="13" y="111" class="tf">trans_code<tspan x="178.83" class="ty">VARCHAR(10)</tspan></text></svg></g></g><text class="qdbd-link" x="10" y="20">www.quickdatabasediagrams.com</text></svg>